STARTFONT 2.1
FONT -DEC-MiriamFixed-Medium-R-Normal--18-180-75-75-M-110-ISO8859-8
SIZE 18 75 75
FONTBOUNDINGBOX 11 17 0 -4

STARTPROPERTIES 26
FONTNAME_REGISTRY ""
FAMILY_NAME "MiriamFixed"
FOUNDRY "DEC"
WEIGHT_NAME "Medium"
SLANT "R"
SETWIDTH_NAME "Normal"
ADD_STYLE_NAME ""
PIXEL_SIZE 18
RESOLUTION_X 75
RESOLUTION_Y 75
SPACING "M"
AVERAGE_WIDTH 110
CHARSET_REGISTRY "ISO8859"
CHARSET_ENCODING "8"
CHARSET_COLLECTIONS "ASCII ISO8859-8 "
FULL_NAME "MiriamFixed"
COPYRIGHT "Digital Israel"
CAP_HEIGHT 11
X_HEIGHT 8
_DEC_DEVICE_FONTNAMES "PS=MiriamFixed-ISOLatinHebrew"
QUAD_WIDTH 11
POINT_SIZE 180
WEIGHT 10
DEFAULT_CHAR 0
FONT_DESCENT 4
FONT_ASCENT 13
ENDPROPERTIES

CHARS 152

STARTCHAR space
ENCODING 32
SWIDTH 587 0
DWIDTH 11 0
BBX 11 17 0 -4
BITMAP
0000
0000
0000
0000
0000
0000
0000
0000
0000
0000
0000
0000
0000
0000
0000
0000
0000
ENDCHAR

STARTCHAR exclam
ENCODING 33
SWIDTH 587 0
DWIDTH 11 0
BBX 11 17 0 -4
BITMAP
0000
0C00
0C00
0C00
0C00
0C00
0C00
0C00
0400
0400
0000
0C00
0C00
0000
0000
0000
0000
ENDCHAR

STARTCHAR quotedbl
ENCODING 34
SWIDTH 587 0
DWIDTH 11 0
BBX 11 17 0 -4
BITMAP
0000
1B00
1B00
1B00
1200
1200
0000
0000
0000
0000
0000
0000
0000
0000
0000
0000
0000
ENDCHAR

STARTCHAR numbersign
ENCODING 35
SWIDTH 587 0
DWIDTH 11 0
BBX 11 17 0 -4
BITMAP
0900
0900
0900
0900
0900
7FC0
1200
1200
1200
7F80
1200
1200
1200
1200
1200
0000
0000
ENDCHAR

STARTCHAR dollar
ENCODING 36
SWIDTH 587 0
DWIDTH 11 0
BBX 11 17 0 -4
BITMAP
0400
0400
1E80
2180
2080
2000
1C00
0300
0080
2080
3080
2F00
0400
0400
0400
0000
0000
ENDCHAR

STARTCHAR percent
ENCODING 37
SWIDTH 587 0
DWIDTH 11 0
BBX 11 17 0 -4
BITMAP
0000
3800
4400
4400
4400
38C0
0700
1800
6700
0880
0880
0880
0700
0000
0000
0000
0000
ENDCHAR

STARTCHAR ampersand
ENCODING 38
SWIDTH 587 0
DWIDTH 11 0
BBX 11 17 0 -4
BITMAP
0000
0000
0000
0E00
1100
1000
1000
0800
1D00
2200
2200
2600
1980
0000
0000
0000
0000
ENDCHAR

STARTCHAR quoteright
ENCODING 39
SWIDTH 587 0
DWIDTH 11 0
BBX 11 17 0 -4
BITMAP
0000
0600
0600
0C00
0C00
1800
0000
0000
0000
0000
0000
0000
0000
0000
0000
0000
0000
ENDCHAR

STARTCHAR parenleft
ENCODING 40
SWIDTH 587 0
DWIDTH 11 0
BBX 11 17 0 -4
BITMAP
0000
0100
0200
0200
0400
0400
0400
0400
0400
0400
0400
0400
0200
0200
0100
0000
0000
ENDCHAR

STARTCHAR parenright
ENCODING 41
SWIDTH 587 0
DWIDTH 11 0
BBX 11 17 0 -4
BITMAP
0000
1000
0800
0800
0400
0400
0400
0400
0400
0400
0400
0400
0800
0800
1000
0000
0000
ENDCHAR

STARTCHAR asterisk
ENCODING 42
SWIDTH 587 0
DWIDTH 11 0
BBX 11 17 0 -4
BITMAP
0000
0400
0400
0400
3F80
0E00
0A00
1100
1100
0000
0000
0000
0000
0000
0000
0000
0000
ENDCHAR

STARTCHAR plus
ENCODING 43
SWIDTH 587 0
DWIDTH 11 0
BBX 11 17 0 -4
BITMAP
0000
0000
0000
0400
0400
0400
0400
7FC0
0400
0400
0400
0400
0000
0000
0000
0000
0000
ENDCHAR

STARTCHAR comma
ENCODING 44
SWIDTH 587 0
DWIDTH 11 0
BBX 11 17 0 -4
BITMAP
0000
0000
0000
0000
0000
0000
0000
0000
0000
0000
0000
0600
0600
0C00
0C00
1800
0000
ENDCHAR

STARTCHAR minus
ENCODING 45
SWIDTH 587 0
DWIDTH 11 0
BBX 11 17 0 -4
BITMAP
0000
0000
0000
0000
0000
0000
0000
7FC0
0000
0000
0000
0000
0000
0000
0000
0000
0000
ENDCHAR

STARTCHAR period
ENCODING 46
SWIDTH 587 0
DWIDTH 11 0
BBX 11 17 0 -4
BITMAP
0000
0000
0000
0000
0000
0000
0000
0000
0000
0000
0000
0C00
0C00
0000
0000
0000
0000
ENDCHAR

STARTCHAR slash
ENCODING 47
SWIDTH 587 0
DWIDTH 11 0
BBX 11 17 0 -4
BITMAP
0080
0080
0100
0100
0200
0200
0400
0400
0800
0800
1000
1000
2000
2000
4000
4000
0000
ENDCHAR

STARTCHAR zero
ENCODING 48
SWIDTH 587 0
DWIDTH 11 0
BBX 11 17 0 -4
BITMAP
0000
0E00
1100
2080
2080
2080
2080
2080
2080
2080
2080
1100
0E00
0000
0000
0000
0000
ENDCHAR

STARTCHAR one
ENCODING 49
SWIDTH 587 0
DWIDTH 11 0
BBX 11 17 0 -4
BITMAP
0000
0C00
3400
0400
0400
0400
0400
0400
0400
0400
0400
0400
3F80
0000
0000
0000
0000
ENDCHAR

STARTCHAR two
ENCODING 50
SWIDTH 587 0
DWIDTH 11 0
BBX 11 17 0 -4
BITMAP
0000
0E00
1100
2080
2080
0080
0100
0200
0400
0800
1000
2080
7F80
0000
0000
0000
0000
ENDCHAR

STARTCHAR three
ENCODING 51
SWIDTH 587 0
DWIDTH 11 0
BBX 11 17 0 -4
BITMAP
0000
1E00
2100
0080
0080
0100
0E00
0100
0080
0080
0080
2100
1E00
0000
0000
0000
0000
ENDCHAR

STARTCHAR four
ENCODING 52
SWIDTH 587 0
DWIDTH 11 0
BBX 11 17 0 -4
BITMAP
0000
0300
0500
0500
0900
0900
1100
1100
2100
3F80
0100
0100
0780
0000
0000
0000
0000
ENDCHAR

STARTCHAR five
ENCODING 53
SWIDTH 587 0
DWIDTH 11 0
BBX 11 17 0 -4
BITMAP
0000
3F00
2000
2000
2000
2E00
3100
0080
0080
0080
0080
6100
1E00
0000
0000
0000
0000
ENDCHAR

STARTCHAR six
ENCODING 54
SWIDTH 587 0
DWIDTH 11 0
BBX 11 17 0 -4
BITMAP
0000
0780
0800
1000
1000
2000
2E00
3100
2080
2080
2080
1100
0E00
0000
0000
0000
0000
ENDCHAR

STARTCHAR seven
ENCODING 55
SWIDTH 587 0
DWIDTH 11 0
BBX 11 17 0 -4
BITMAP
0000
3FC0
2040
0080
0080
0100
0100
0100
0100
0200
0200
0200
0200
0000
0000
0000
0000
ENDCHAR

STARTCHAR eight
ENCODING 56
SWIDTH 587 0
DWIDTH 11 0
BBX 11 17 0 -4
BITMAP
0000
0E00
1100
2080
2080
1100
0E00
1100
2080
2080
2080
1100
0E00
0000
0000
0000
0000
ENDCHAR

STARTCHAR nine
ENCODING 57
SWIDTH 587 0
DWIDTH 11 0
BBX 11 17 0 -4
BITMAP
0000
0E00
1100
2080
2080
2080
1180
0E80
0080
0080
0100
0200
3C00
0000
0000
0000
0000
ENDCHAR

STARTCHAR colon
ENCODING 58
SWIDTH 587 0
DWIDTH 11 0
BBX 11 17 0 -4
BITMAP
0000
0000
0000
0000
0000
0600
0600
0000
0000
0000
0000
0600
0600
0000
0000
0000
0000
ENDCHAR

STARTCHAR semicolon
ENCODING 59
SWIDTH 587 0
DWIDTH 11 0
BBX 11 17 0 -4
BITMAP
0000
0000
0000
0000
0000
0600
0600
0000
0000
0000
0000
0C00
0C00
1800
1800
3000
0000
ENDCHAR

STARTCHAR less
ENCODING 60
SWIDTH 587 0
DWIDTH 11 0
BBX 11 17 0 -4
BITMAP
0000
0000
0000
00C0
0300
0C00
3000
C000
3000
0C00
0300
00C0
0000
0000
0000
0000
0000
ENDCHAR

STARTCHAR equal
ENCODING 61
SWIDTH 587 0
DWIDTH 11 0
BBX 11 17 0 -4
BITMAP
0000
0000
0000
0000
0000
0000
7FC0
0000
0000
7FC0
0000
0000
0000
0000
0000
0000
0000
ENDCHAR

STARTCHAR greater
ENCODING 62
SWIDTH 587 0
DWIDTH 11 0
BBX 11 17 0 -4
BITMAP
0000
0000
0000
C000
3000
0C00
0300
00C0
0300
0C00
3000
C000
0000
0000
0000
0000
0000
ENDCHAR

STARTCHAR question
ENCODING 63
SWIDTH 587 0
DWIDTH 11 0
BBX 11 17 0 -4
BITMAP
0000
0000
1F00
2180
2080
0080
0100
0200
0C00
0800
0000
0C00
0C00
0000
0000
0000
0000
ENDCHAR

STARTCHAR at
ENCODING 64
SWIDTH 587 0
DWIDTH 11 0
BBX 11 17 0 -4
BITMAP
0000
0F00
1080
2080
2080
2380
2480
2480
2480
23C0
2000
2000
10C0
0F00
0000
0000
0000
ENDCHAR

STARTCHAR A
ENCODING 65
SWIDTH 587 0
DWIDTH 11 0
BBX 11 17 0 -4
BITMAP
0000
0000
3C00
0400
0A00
0A00
1100
1100
2080
3F80
4040
4040
F1E0
0000
0000
0000
0000
ENDCHAR

STARTCHAR B
ENCODING 66
SWIDTH 587 0
DWIDTH 11 0
BBX 11 17 0 -4
BITMAP
0000
0000
7F00
2080
2080
2080
2100
3F00
2080
2040
2040
2080
7F00
0000
0000
0000
0000
ENDCHAR

STARTCHAR C
ENCODING 67
SWIDTH 587 0
DWIDTH 11 0
BBX 11 17 0 -4
BITMAP
0000
0000
0F40
30C0
2040
4000
4000
4000
4000
4000
2040
3080
0F00
0000
0000
0000
0000
ENDCHAR

STARTCHAR D
ENCODING 68
SWIDTH 587 0
DWIDTH 11 0
BBX 11 17 0 -4
BITMAP
0000
0000
7E00
2100
2080
2080
2080
2080
2080
2080
2080
2100
7E00
0000
0000
0000
0000
ENDCHAR

STARTCHAR E
ENCODING 69
SWIDTH 587 0
DWIDTH 11 0
BBX 11 17 0 -4
BITMAP
0000
0000
7F80
2080
2080
2080
2400
3C00
2400
2080
2080
2080
7F80
0000
0000
0000
0000
ENDCHAR

STARTCHAR F
ENCODING 70
SWIDTH 587 0
DWIDTH 11 0
BBX 11 17 0 -4
BITMAP
0000
0000
7F80
2080
2080
2080
2400
3C00
2400
2000
2000
2000
7800
0000
0000
0000
0000
ENDCHAR

STARTCHAR G
ENCODING 71
SWIDTH 587 0
DWIDTH 11 0
BBX 11 17 0 -4
BITMAP
0000
0000
0F40
30C0
2040
4000
4000
4000
41E0
4040
2040
3080
0F00
0000
0000
0000
0000
ENDCHAR

STARTCHAR H
ENCODING 72
SWIDTH 587 0
DWIDTH 11 0
BBX 11 17 0 -4
BITMAP
0000
0000
71C0
2080
2080
2080
2080
3F80
2080
2080
2080
2080
71C0
0000
0000
0000
0000
ENDCHAR

STARTCHAR I
ENCODING 73
SWIDTH 587 0
DWIDTH 11 0
BBX 11 17 0 -4
BITMAP
0000
0000
3F80
0400
0400
0400
0400
0400
0400
0400
0400
0400
3F80
0000
0000
0000
0000
ENDCHAR

STARTCHAR J
ENCODING 74
SWIDTH 587 0
DWIDTH 11 0
BBX 11 17 0 -4
BITMAP
0000
0000
0FC0
0100
0100
0100
0100
0100
4100
4100
4100
2200
1C00
0000
0000
0000
0000
ENDCHAR

STARTCHAR K
ENCODING 75
SWIDTH 587 0
DWIDTH 11 0
BBX 11 17 0 -4
BITMAP
0000
0000
F3C0
4100
4200
4400
4800
5800
6400
4200
4200
4100
F1C0
0000
0000
0000
0000
ENDCHAR

STARTCHAR L
ENCODING 76
SWIDTH 587 0
DWIDTH 11 0
BBX 11 17 0 -4
BITMAP
0000
0000
7C00
1000
1000
1000
1000
1000
1000
1040
1040
1040
7FC0
0000
0000
0000
0000
ENDCHAR

STARTCHAR M
ENCODING 77
SWIDTH 587 0
DWIDTH 11 0
BBX 11 17 0 -4
BITMAP
0000
0000
E0E0
60C0
5140
5140
4A40
4A40
4440
4440
4040
4040
F1E0
0000
0000
0000
0000
ENDCHAR

STARTCHAR N
ENCODING 78
SWIDTH 587 0
DWIDTH 11 0
BBX 11 17 0 -4
BITMAP
0000
0000
73C0
3080
2880
2880
2480
2480
2280
2280
2180
2180
7880
0000
0000
0000
0000
ENDCHAR

STARTCHAR O
ENCODING 79
SWIDTH 587 0
DWIDTH 11 0
BBX 11 17 0 -4
BITMAP
0000
0000
0E00
3180
2080
4040
4040
4040
4040
4040
2080
3180
0E00
0000
0000
0000
0000
ENDCHAR

STARTCHAR P
ENCODING 80
SWIDTH 587 0
DWIDTH 11 0
BBX 11 17 0 -4
BITMAP
0000
0000
7F00
2080
2040
2040
2040
2080
3F00
2000
2000
2000
7C00
0000
0000
0000
0000
ENDCHAR

STARTCHAR Q
ENCODING 81
SWIDTH 587 0
DWIDTH 11 0
BBX 11 17 0 -4
BITMAP
0000
0000
0E00
3180
2080
4040
4040
4040
4040
4040
2080
3180
0E00
1C40
2380
0000
0000
ENDCHAR

STARTCHAR R
ENCODING 82
SWIDTH 587 0
DWIDTH 11 0
BBX 11 17 0 -4
BITMAP
0000
0000
7F00
2080
2080
2080
2100
3E00
2100
2100
2080
2080
7860
0000
0000
0000
0000
ENDCHAR

STARTCHAR S
ENCODING 83
SWIDTH 587 0
DWIDTH 11 0
BBX 11 17 0 -4
BITMAP
0000
0000
0E80
1180
2080
2000
1000
0F00
0080
0040
2040
3080
2F00
0000
0000
0000
0000
ENDCHAR

STARTCHAR T
ENCODING 84
SWIDTH 587 0
DWIDTH 11 0
BBX 11 17 0 -4
BITMAP
0000
0000
7FC0
4440
4440
4440
0400
0400
0400
0400
0400
0400
1F00
0000
0000
0000
0000
ENDCHAR

STARTCHAR U
ENCODING 85
SWIDTH 587 0
DWIDTH 11 0
BBX 11 17 0 -4
BITMAP
0000
0000
F3C0
4080
4080
4080
4080
4080
4080
4080
4080
2100
1E00
0000
0000
0000
0000
ENDCHAR

STARTCHAR V
ENCODING 86
SWIDTH 587 0
DWIDTH 11 0
BBX 11 17 0 -4
BITMAP
0000
0000
F1E0
4040
4040
2080
2080
1100
1100
0A00
0A00
0400
0400
0000
0000
0000
0000
ENDCHAR

STARTCHAR W
ENCODING 87
SWIDTH 587 0
DWIDTH 11 0
BBX 11 17 0 -4
BITMAP
0000
0000
F1E0
4040
4440
4440
4440
2A80
2A80
2A80
2A80
1100
1100
0000
0000
0000
0000
ENDCHAR

STARTCHAR X
ENCODING 88
SWIDTH 587 0
DWIDTH 11 0
BBX 11 17 0 -4
BITMAP
0000
0000
71C0
2080
1100
1100
0A00
0400
0A00
1100
1100
2080
71C0
0000
0000
0000
0000
ENDCHAR

STARTCHAR Y
ENCODING 89
SWIDTH 587 0
DWIDTH 11 0
BBX 11 17 0 -4
BITMAP
0000
0000
71C0
2080
1100
1100
0A00
0A00
0400
0400
0400
0400
1F00
0000
0000
0000
0000
ENDCHAR

STARTCHAR Z
ENCODING 90
SWIDTH 587 0
DWIDTH 11 0
BBX 11 17 0 -4
BITMAP
0000
0000
3F80
2080
2100
0200
0200
0400
0800
0800
1080
2080
3F80
0000
0000
0000
0000
ENDCHAR

STARTCHAR bracketleft
ENCODING 91
SWIDTH 587 0
DWIDTH 11 0
BBX 11 17 0 -4
BITMAP
0000
0700
0400
0400
0400
0400
0400
0400
0400
0400
0400
0400
0400
0400
0400
0700
0000
ENDCHAR

STARTCHAR backslash
ENCODING 92
SWIDTH 587 0
DWIDTH 11 0
BBX 11 17 0 -4
BITMAP
2000
2000
1000
1000
0800
0800
0400
0400
0200
0200
0100
0100
0080
0080
0040
0040
0000
ENDCHAR

STARTCHAR bracketright
ENCODING 93
SWIDTH 587 0
DWIDTH 11 0
BBX 11 17 0 -4
BITMAP
0000
1C00
0400
0400
0400
0400
0400
0400
0400
0400
0400
0400
0400
0400
0400
1C00
0000
ENDCHAR

STARTCHAR asciicircum
ENCODING 94
SWIDTH 587 0
DWIDTH 11 0
BBX 11 17 0 -4
BITMAP
0000
0400
0A00
1100
2080
0000
0000
0000
0000
0000
0000
0000
0000
0000
0000
0000
0000
ENDCHAR

STARTCHAR underscore
ENCODING 95
SWIDTH 587 0
DWIDTH 11 0
BBX 11 17 0 -4
BITMAP
0000
0000
0000
0000
0000
0000
0000
0000
0000
0000
0000
0000
0000
0000
0000
0000
FFE0
ENDCHAR

STARTCHAR quoteleft
ENCODING 96
SWIDTH 587 0
DWIDTH 11 0
BBX 11 17 0 -4
BITMAP
0000
1800
1800
0C00
0C00
0600
0000
0000
0000
0000
0000
0000
0000
0000
0000
0000
0000
ENDCHAR

STARTCHAR a
ENCODING 97
SWIDTH 587 0
DWIDTH 11 0
BBX 11 17 0 -4
BITMAP
0000
0000
0000
0000
0000
1E00
2100
0100
3F00
4100
4100
4300
3DC0
0000
0000
0000
0000
ENDCHAR

STARTCHAR b
ENCODING 98
SWIDTH 587 0
DWIDTH 11 0
BBX 11 17 0 -4
BITMAP
0000
6000
2000
2000
2000
2F00
3080
2040
2040
2040
2040
3080
6F00
0000
0000
0000
0000
ENDCHAR

STARTCHAR c
ENCODING 99
SWIDTH 587 0
DWIDTH 11 0
BBX 11 17 0 -4
BITMAP
0000
0000
0000
0000
0000
1E80
2180
4080
4000
4000
4000
2180
1E00
0000
0000
0000
0000
ENDCHAR

STARTCHAR d
ENCODING 100
SWIDTH 587 0
DWIDTH 11 0
BBX 11 17 0 -4
BITMAP
0000
0180
0080
0080
0080
1E80
2180
4080
4080
4080
4080
2180
1EC0
0000
0000
0000
0000
ENDCHAR

STARTCHAR e
ENCODING 101
SWIDTH 587 0
DWIDTH 11 0
BBX 11 17 0 -4
BITMAP
0000
0000
0000
0000
0000
1E00
2100
4080
7F80
4000
4000
2180
1E00
0000
0000
0000
0000
ENDCHAR

STARTCHAR f
ENCODING 102
SWIDTH 587 0
DWIDTH 11 0
BBX 11 17 0 -4
BITMAP
0000
03C0
0400
0800
0800
3F80
0800
0800
0800
0800
0800
0800
3F80
0000
0000
0000
0000
ENDCHAR

STARTCHAR g
ENCODING 103
SWIDTH 587 0
DWIDTH 11 0
BBX 11 17 0 -4
BITMAP
0000
0000
0000
0000
0000
1EC0
2180
4080
4080
4080
4080
2180
1E80
0080
0080
0100
3E00
ENDCHAR

STARTCHAR h
ENCODING 104
SWIDTH 587 0
DWIDTH 11 0
BBX 11 17 0 -4
BITMAP
0000
6000
2000
2000
2000
2F00
3080
2080
2080
2080
2080
2080
71C0
0000
0000
0000
0040
ENDCHAR

STARTCHAR i
ENCODING 105
SWIDTH 587 0
DWIDTH 11 0
BBX 11 17 0 -4
BITMAP
0000
0000
0400
0400
0000
1C00
0400
0400
0400
0400
0400
0400
3F80
0000
0000
0000
0000
ENDCHAR

STARTCHAR j
ENCODING 106
SWIDTH 587 0
DWIDTH 11 0
BBX 11 17 0 -4
BITMAP
0000
0000
0200
0200
0000
3F00
0100
0100
0100
0100
0100
0100
0100
0100
0100
0200
3C00
ENDCHAR

STARTCHAR k
ENCODING 107
SWIDTH 587 0
DWIDTH 11 0
BBX 11 17 0 -4
BITMAP
0000
6000
2000
2000
2000
2780
2200
2400
3800
2400
2200
2100
63C0
0000
0000
0000
0000
ENDCHAR

STARTCHAR l
ENCODING 108
SWIDTH 587 0
DWIDTH 11 0
BBX 11 17 0 -4
BITMAP
0000
3C00
0400
0400
0400
0400
0400
0400
0400
0400
0400
0400
3F80
0000
0000
0000
0000
ENDCHAR

STARTCHAR m
ENCODING 109
SWIDTH 587 0
DWIDTH 11 0
BBX 11 17 0 -4
BITMAP
0000
0000
0000
0000
0000
D980
6640
4440
4440
4440
4440
4440
E660
0000
0000
0000
0000
ENDCHAR

STARTCHAR n
ENCODING 110
SWIDTH 587 0
DWIDTH 11 0
BBX 11 17 0 -4
BITMAP
0000
0000
0000
0000
0000
6F00
3080
2080
2080
2080
2080
2080
71C0
0000
0000
0000
0000
ENDCHAR

STARTCHAR o
ENCODING 111
SWIDTH 587 0
DWIDTH 11 0
BBX 11 17 0 -4
BITMAP
0000
0000
0000
0000
0000
1E00
2100
4080
4080
4080
4080
2100
1E00
0000
0000
0000
0000
ENDCHAR

STARTCHAR p
ENCODING 112
SWIDTH 587 0
DWIDTH 11 0
BBX 11 17 0 -4
BITMAP
0000
0000
0000
0000
0000
6F00
3080
2040
2040
2040
2040
3080
2F00
2000
2000
2000
7800
ENDCHAR

STARTCHAR q
ENCODING 113
SWIDTH 587 0
DWIDTH 11 0
BBX 11 17 0 -4
BITMAP
0000
0000
0000
0000
0000
1EC0
2180
4080
4080
4080
4080
2180
1E80
0080
0080
0080
03C0
ENDCHAR

STARTCHAR r
ENCODING 114
SWIDTH 587 0
DWIDTH 11 0
BBX 11 17 0 -4
BITMAP
0000
0000
0000
0000
0000
7700
1880
1000
1000
1000
1000
1000
7F00
0000
0000
0000
0000
ENDCHAR

STARTCHAR s
ENCODING 115
SWIDTH 587 0
DWIDTH 11 0
BBX 11 17 0 -4
BITMAP
0000
0000
0000
0000
0000
1E80
2180
2080
1C00
0300
2080
3080
2F00
0000
0000
0000
0000
ENDCHAR

STARTCHAR t
ENCODING 116
SWIDTH 587 0
DWIDTH 11 0
BBX 11 17 0 -4
BITMAP
0000
0000
0800
0800
0800
3F80
0800
0800
0800
0800
0800
0840
0780
0000
0000
0000
0000
ENDCHAR

STARTCHAR u
ENCODING 117
SWIDTH 587 0
DWIDTH 11 0
BBX 11 17 0 -4
BITMAP
0000
0000
0000
0000
0000
6180
2080
2080
2080
2080
2080
2180
1EC0
0000
0000
0000
0000
ENDCHAR

STARTCHAR v
ENCODING 118
SWIDTH 587 0
DWIDTH 11 0
BBX 11 17 0 -4
BITMAP
0000
0000
0000
0000
0000
71C0
2080
1100
1100
0A00
0A00
0400
0400
0000
0000
0000
0000
ENDCHAR

STARTCHAR w
ENCODING 119
SWIDTH 587 0
DWIDTH 11 0
BBX 11 17 0 -4
BITMAP
0000
0000
0000
0000
0000
71C0
2080
2480
2480
2A80
2A80
1100
1100
0000
0000
0000
0000
ENDCHAR

STARTCHAR x
ENCODING 120
SWIDTH 587 0
DWIDTH 11 0
BBX 11 17 0 -4
BITMAP
0000
0000
0000
0000
0000
7380
2100
1200
0C00
0C00
1200
2100
7380
0000
0000
0000
0000
ENDCHAR

STARTCHAR y
ENCODING 121
SWIDTH 587 0
DWIDTH 11 0
BBX 11 17 0 -4
BITMAP
0000
0000
0000
0000
0000
71C0
2080
2080
1100
1100
0A00
0A00
0400
0400
0800
0800
7C00
ENDCHAR

STARTCHAR z
ENCODING 122
SWIDTH 587 0
DWIDTH 11 0
BBX 11 17 0 -4
BITMAP
0000
0000
0000
0000
0000
3F80
2080
2100
0200
0400
0880
1080
3F80
0000
0000
0000
0000
ENDCHAR

STARTCHAR braceleft
ENCODING 123
SWIDTH 587 0
DWIDTH 11 0
BBX 11 17 0 -4
BITMAP
0000
0300
0400
0400
0400
0400
0400
1800
0400
0400
0400
0400
0400
0400
0400
0300
0000
ENDCHAR

STARTCHAR bar
ENCODING 124
SWIDTH 587 0
DWIDTH 11 0
BBX 11 17 0 -4
BITMAP
0000
0400
0400
0400
0400
0400
0400
0400
0400
0400
0400
0400
0400
0400
0400
0400
0000
ENDCHAR

STARTCHAR braceright
ENCODING 125
SWIDTH 587 0
DWIDTH 11 0
BBX 11 17 0 -4
BITMAP
0000
1800
0400
0400
0400
0400
0400
0300
0400
0400
0400
0400
0400
0400
0400
1800
0000
ENDCHAR

STARTCHAR asciitilde
ENCODING 126
SWIDTH 587 0
DWIDTH 11 0
BBX 11 17 0 -4
BITMAP
0000
0000
0000
0000
0000
0000
3000
4C80
0300
0000
0000
0000
0000
0000
0000
0000
0000
ENDCHAR

STARTCHAR cent
ENCODING 162
SWIDTH 587 0
DWIDTH 11 0
BBX 11 17 0 -4
BITMAP
0000
0400
0400
0400
0F00
1100
2100
2000
2000
1100
0E00
0400
0400
0000
0000
0000
0000
ENDCHAR

STARTCHAR sterling
ENCODING 163
SWIDTH 587 0
DWIDTH 11 0
BBX 11 17 0 -4
BITMAP
0000
0000
0E00
1100
1000
1000
0800
7E00
0800
1000
1080
2080
3F00
0000
0000
0000
0000
ENDCHAR

STARTCHAR currency
ENCODING 164
SWIDTH 587 0
DWIDTH 11 0
BBX 11 17 0 -4
BITMAP
0000
0000
0000
0000
2100
1E00
2100
2100
2100
1E00
2100
0000
0000
0000
0000
0000
0000
ENDCHAR

STARTCHAR yen
ENCODING 165
SWIDTH 587 0
DWIDTH 11 0
BBX 11 17 0 -4
BITMAP
0000
0000
71C0
2080
1100
1100
0A00
0A00
3F80
0400
3F80
0400
1F00
0000
0000
0000
0000
ENDCHAR

STARTCHAR brokenbar
ENCODING 166
SWIDTH 587 0
DWIDTH 11 0
BBX 11 17 0 -4
BITMAP
0000
0400
0400
0400
0400
0400
0400
0000
0000
0400
0400
0400
0400
0400
0400
0400
0000
ENDCHAR

STARTCHAR section
ENCODING 167
SWIDTH 587 0
DWIDTH 11 0
BBX 11 17 0 -4
BITMAP
0000
0F80
1080
1080
1000
1C00
2300
2080
1880
0700
0100
2100
2100
3E00
0000
0000
0000
ENDCHAR

STARTCHAR dieresis
ENCODING 168
SWIDTH 587 0
DWIDTH 11 0
BBX 11 17 0 -4
BITMAP
0000
0000
1B00
0000
0000
0000
0000
0000
0000
0000
0000
0000
0000
0000
0000
0000
0000
ENDCHAR

STARTCHAR copyright
ENCODING 169
SWIDTH 587 0
DWIDTH 11 0
BBX 11 17 0 -4
BITMAP
0000
0000
1E00
6180
4E80
9240
A040
A040
A040
9240
4C80
6180
1E00
0000
0000
0000
0000
ENDCHAR

STARTCHAR multiply
ENCODING 170
SWIDTH 587 0
DWIDTH 11 0
BBX 11 17 0 -4
BITMAP
0000
0000
0000
4040
2080
1100
0A00
0400
0A00
1100
2080
4040
0000
0000
0000
0000
0000
ENDCHAR

STARTCHAR guillemotleft
ENCODING 171
SWIDTH 587 0
DWIDTH 11 0
BBX 11 17 0 -4
BITMAP
0000
0000
0000
0000
0000
0440
1980
3300
6600
6600
3300
1980
0440
0000
0000
0000
0000
ENDCHAR

STARTCHAR logicalnot
ENCODING 172
SWIDTH 587 0
DWIDTH 11 0
BBX 11 17 0 -4
BITMAP
0000
0000
0000
0000
0000
0000
7FC0
0040
0040
0040
0000
0000
0000
0000
0000
0000
0000
ENDCHAR

STARTCHAR hyphen
ENCODING 173
SWIDTH 587 0
DWIDTH 11 0
BBX 11 17 0 -4
BITMAP
0000
0000
0000
0000
0000
0000
0000
7F80
0000
0000
0000
0000
0000
0000
0000
0000
0000
ENDCHAR

STARTCHAR registered
ENCODING 174
SWIDTH 587 0
DWIDTH 11 0
BBX 11 17 0 -4
BITMAP
0000
0000
1F00
60C0
5E40
9120
9120
9E20
9420
9220
51C0
6080
1F00
0000
0000
0000
0000
ENDCHAR

STARTCHAR macron
ENCODING 175
SWIDTH 587 0
DWIDTH 11 0
BBX 11 17 0 -4
BITMAP
0000
0000
0000
1F00
0000
0000
0000
0000
0000
0000
0000
0000
0000
0000
0000
0000
0000
ENDCHAR

STARTCHAR degree
ENCODING 176
SWIDTH 587 0
DWIDTH 11 0
BBX 11 17 0 -4
BITMAP
0000
0E00
1100
1100
1100
0E00
0000
0000
0000
0000
0000
0000
0000
0000
0000
0000
0000
ENDCHAR

STARTCHAR plusminus
ENCODING 177
SWIDTH 587 0
DWIDTH 11 0
BBX 11 17 0 -4
BITMAP
0000
0000
0000
0400
0400
0400
7FC0
0400
0400
0400
0000
7FC0
0000
0000
0000
0000
0000
ENDCHAR

STARTCHAR twosuperior
ENCODING 178
SWIDTH 587 0
DWIDTH 11 0
BBX 11 17 0 -4
BITMAP
0000
0E00
1100
0100
0200
0400
0800
1F00
0000
0000
0000
0000
0000
0000
0000
0000
0000
ENDCHAR

STARTCHAR threesuperior
ENCODING 179
SWIDTH 587 0
DWIDTH 11 0
BBX 11 17 0 -4
BITMAP
0000
0E00
1100
0100
0600
0100
1100
0E00
0000
0000
0000
0000
0000
0000
0000
0000
0000
ENDCHAR

STARTCHAR acute
ENCODING 180
SWIDTH 587 0
DWIDTH 11 0
BBX 11 17 0 -4
BITMAP
0000
0200
0400
0800
0000
0000
0000
0000
0000
0000
0000
0000
0000
0000
0000
0000
0000
ENDCHAR

STARTCHAR mu
ENCODING 181
SWIDTH 587 0
DWIDTH 11 0
BBX 11 17 0 -4
BITMAP
0000
0000
0000
0000
0000
6180
2080
2080
2080
2080
2080
2180
3EC0
2000
2000
2000
2000
ENDCHAR

STARTCHAR paragraph
ENCODING 182
SWIDTH 587 0
DWIDTH 11 0
BBX 11 17 0 -4
BITMAP
0000
1F80
2500
4500
4500
4500
2500
1D00
0500
0500
0500
0500
0500
1D80
0000
0000
0000
ENDCHAR

STARTCHAR periodcentered
ENCODING 183
SWIDTH 587 0
DWIDTH 11 0
BBX 11 17 0 -4
BITMAP
0000
0000
0000
0000
0000
0000
0C00
0C00
0000
0000
0000
0000
0000
0000
0000
0000
0000
ENDCHAR

STARTCHAR cedilla
ENCODING 184
SWIDTH 587 0
DWIDTH 11 0
BBX 11 17 0 -4
BITMAP
0000
0000
0000
0000
0000
0000
0000
0000
0000
0000
0000
0000
0000
0400
0200
0C00
0000
ENDCHAR

STARTCHAR onesuperior
ENCODING 185
SWIDTH 587 0
DWIDTH 11 0
BBX 11 17 0 -4
BITMAP
0000
0400
1C00
0400
0400
0400
0400
1F00
0000
0000
0000
0000
0000
0000
0000
0000
0000
ENDCHAR

STARTCHAR divide
ENCODING 186
SWIDTH 587 0
DWIDTH 11 0
BBX 11 17 0 -4
BITMAP
0000
0000
0000
0C00
0C00
0000
0000
7F80
0000
0000
0C00
0C00
0000
0000
0000
0000
0000
ENDCHAR

STARTCHAR guillemotright
ENCODING 187
SWIDTH 587 0
DWIDTH 11 0
BBX 11 17 0 -4
BITMAP
0000
0000
0000
0000
0000
4400
3300
1980
0CC0
0CC0
1980
3300
4400
0000
0000
0000
0000
ENDCHAR

STARTCHAR onequarter
ENCODING 188
SWIDTH 587 0
DWIDTH 11 0
BBX 11 17 0 -4
BITMAP
2000
E000
2040
2080
2100
2100
FA40
04C0
0940
0A40
13E0
2040
00E0
0000
0000
0000
0000
ENDCHAR

STARTCHAR onehalf
ENCODING 189
SWIDTH 587 0
DWIDTH 11 0
BBX 11 17 0 -4
BITMAP
2000
E000
2040
2080
2100
2100
FAC0
0520
0920
0840
1080
2100
03E0
0000
0000
0000
0000
ENDCHAR

STARTCHAR threequarters
ENCODING 190
SWIDTH 587 0
DWIDTH 11 0
BBX 11 17 0 -4
BITMAP
7000
8800
0840
3080
0900
8900
7240
04C0
0940
0A40
13E0
2040
00E0
0000
0000
0000
0000
ENDCHAR

STARTCHAR dblunderscore
ENCODING 223
SWIDTH 587 0
DWIDTH 11 0
BBX 11 17 0 -4
BITMAP
0000
0000
0000
0000
0000
0000
0000
0000
0000
0000
0000
0000
FFE0
0000
0000
FFE0
0000
ENDCHAR

STARTCHAR aleph
ENCODING 224
SWIDTH 587 0
DWIDTH 11 0
BBX 11 17 0 -4
BITMAP
0000
0000
0000
0000
4380
2080
1080
2880
4500
4200
4100
4080
7840
0000
0000
0000
0000
ENDCHAR

STARTCHAR beth
ENCODING 225
SWIDTH 587 0
DWIDTH 11 0
BBX 11 17 0 -4
BITMAP
0000
0000
0000
0000
3E00
0100
0100
0100
0100
0100
0100
0100
7FC0
0000
0000
0000
0000
ENDCHAR

STARTCHAR gimmel
ENCODING 226
SWIDTH 587 0
DWIDTH 11 0
BBX 11 17 0 -4
BITMAP
0000
0000
0000
0000
0F80
0080
0080
0080
0080
0180
0280
0480
3880
0000
0000
0000
0000
ENDCHAR

STARTCHAR daleth
ENCODING 227
SWIDTH 587 0
DWIDTH 11 0
BBX 11 17 0 -4
BITMAP
0000
0000
0000
0000
7FC0
0100
0100
0100
0100
0100
0100
0100
0100
0000
0000
0000
0000
ENDCHAR

STARTCHAR he
ENCODING 228
SWIDTH 587 0
DWIDTH 11 0
BBX 11 17 0 -4
BITMAP
0000
0000
0000
0000
7F00
0080
0080
0080
2080
2080
2080
2080
2080
0000
0000
0000
0000
ENDCHAR

STARTCHAR waw
ENCODING 229
SWIDTH 587 0
DWIDTH 11 0
BBX 11 17 0 -4
BITMAP
0000
0000
0000
0000
0F00
0100
0100
0100
0100
0100
0100
0100
0100
0000
0000
0000
0000
ENDCHAR

STARTCHAR zayin
ENCODING 230
SWIDTH 587 0
DWIDTH 11 0
BBX 11 17 0 -4
BITMAP
0000
0000
0000
0000
1F80
0200
0200
0200
0200
0200
0200
0200
0200
0000
0000
0000
0000
ENDCHAR

STARTCHAR het
ENCODING 231
SWIDTH 587 0
DWIDTH 11 0
BBX 11 17 0 -4
BITMAP
0000
0000
0000
0000
7F80
2100
2100
2100
2100
2100
2100
2100
2100
0000
0000
0000
0000
ENDCHAR

STARTCHAR teth
ENCODING 232
SWIDTH 587 0
DWIDTH 11 0
BBX 11 17 0 -4
BITMAP
0000
0000
0000
0000
E380
2440
2440
2440
2040
2040
2040
2040
1F80
0000
0000
0000
0000
ENDCHAR

STARTCHAR yod
ENCODING 233
SWIDTH 587 0
DWIDTH 11 0
BBX 11 17 0 -4
BITMAP
0000
0000
0000
0000
3F00
0100
0100
0100
0100
0100
0000
0000
0000
0000
0000
0000
0000
ENDCHAR

STARTCHAR kaphfinal
ENCODING 234
SWIDTH 587 0
DWIDTH 11 0
BBX 11 17 0 -4
BITMAP
0000
0000
0000
0000
7FC0
0100
0100
0100
0100
0100
0100
0100
0100
0100
0100
01C0
0000
ENDCHAR

STARTCHAR kaph
ENCODING 235
SWIDTH 587 0
DWIDTH 11 0
BBX 11 17 0 -4
BITMAP
0000
0000
0000
0000
7E00
0100
0080
0080
0080
0080
0080
0100
7E00
0000
0000
0000
0000
ENDCHAR

STARTCHAR lamed
ENCODING 236
SWIDTH 587 0
DWIDTH 11 0
BBX 11 17 0 -4
BITMAP
0000
0000
2000
2000
3FC0
0040
0040
0040
0080
0100
0200
0400
0700
0000
0000
0000
0000
ENDCHAR

STARTCHAR memfinal
ENCODING 237
SWIDTH 587 0
DWIDTH 11 0
BBX 11 17 0 -4
BITMAP
0000
0000
0000
0000
3FC0
1040
1040
1040
1040
1040
1040
1040
1FC0
0000
0000
0000
0000
ENDCHAR

STARTCHAR mem
ENCODING 238
SWIDTH 587 0
DWIDTH 11 0
BBX 11 17 0 -4
BITMAP
0000
0000
0000
0000
E780
2840
3040
2040
2040
2040
2040
2040
27C0
0000
0000
0000
0000
ENDCHAR

STARTCHAR nunfinal
ENCODING 239
SWIDTH 587 0
DWIDTH 11 0
BBX 11 17 0 -4
BITMAP
0000
0000
0000
0000
1E00
0200
0200
0200
0200
0200
0200
0200
0200
0200
0200
0380
0000
ENDCHAR

STARTCHAR nun
ENCODING 240
SWIDTH 587 0
DWIDTH 11 0
BBX 11 17 0 -4
BITMAP
0000
0000
0000
0000
0F00
0100
0100
0100
0100
0100
0100
0100
1F00
0000
0000
0000
0000
ENDCHAR

STARTCHAR samekh
ENCODING 241
SWIDTH 587 0
DWIDTH 11 0
BBX 11 17 0 -4
BITMAP
0000
0000
0000
0000
7FC0
2040
2040
2040
2040
2040
2040
1080
0F00
0000
0000
0000
0000
ENDCHAR

STARTCHAR ayin
ENCODING 242
SWIDTH 587 0
DWIDTH 11 0
BBX 11 17 0 -4
BITMAP
0000
0000
0000
0000
7380
1080
1080
1080
1080
1080
1100
1300
7C00
0000
0000
0000
0000
ENDCHAR

STARTCHAR pefinal
ENCODING 243
SWIDTH 587 0
DWIDTH 11 0
BBX 11 17 0 -4
BITMAP
0000
0000
0000
0000
7F00
4100
4100
4100
4100
7100
0100
0100
0100
0100
0100
01C0
0000
ENDCHAR

STARTCHAR pe
ENCODING 244
SWIDTH 587 0
DWIDTH 11 0
BBX 11 17 0 -4
BITMAP
0000
0000
0000
0000
7F00
4100
4100
4100
7100
0100
0100
0100
7F00
0000
0000
0000
0000
ENDCHAR

STARTCHAR zadikfinal
ENCODING 245
SWIDTH 587 0
DWIDTH 11 0
BBX 11 17 0 -4
BITMAP
0000
0000
0000
0000
E380
2080
2080
2100
2300
3C00
2000
2000
2000
2000
2000
3C00
0000
ENDCHAR

STARTCHAR zadik
ENCODING 246
SWIDTH 587 0
DWIDTH 11 0
BBX 11 17 0 -4
BITMAP
0000
0000
0000
0000
39C0
0840
0840
0880
0500
0200
0100
0080
3F80
0000
0000
0000
0000
ENDCHAR

STARTCHAR kof
ENCODING 247
SWIDTH 587 0
DWIDTH 11 0
BBX 11 17 0 -4
BITMAP
0000
0000
0000
0000
7FC0
0040
0040
0040
2080
2100
2200
2400
2780
2000
2000
2000
0000
ENDCHAR

STARTCHAR resh
ENCODING 248
SWIDTH 587 0
DWIDTH 11 0
BBX 11 17 0 -4
BITMAP
0000
0000
0000
0000
3F80
0080
0080
0080
0080
0080
0080
0080
0080
0000
0000
0000
0000
ENDCHAR

STARTCHAR shin
ENCODING 249
SWIDTH 587 0
DWIDTH 11 0
BBX 11 17 0 -4
BITMAP
0000
0000
0000
0000
64C0
4440
4440
4440
4440
4440
4440
4440
3F80
0000
0000
0000
0000
ENDCHAR

STARTCHAR taf
ENCODING 250
SWIDTH 587 0
DWIDTH 11 0
BBX 11 17 0 -4
BITMAP
0000
0000
0000
0000
3F80
1080
1080
1080
1080
1080
1080
1080
7080
0000
0000
0000
0000
ENDCHAR
ENDFONT
